<?xml version="1.0" standalone="no"?>
<!DOCTYPE svg PUBLIC "-//W3C//DTD SVG 20010904//EN"
 "http://www.w3.org/TR/2001/REC-SVG-20010904/DTD/svg10.dtd">
<svg version="1.0" xmlns="http://www.w3.org/2000/svg"
 width="149.000000pt" height="149.000000pt" viewBox="0 0 149.000000 149.000000"
 preserveAspectRatio="xMidYMid meet">
<metadata>
Created by potrace 1.11, written by Peter Selinger 2001-2013
</metadata>
<g transform="translate(0.000000,149.000000) scale(0.100000,-0.100000)"
fill="#000000" stroke="none">
<path d="M668 1254 c-27 -8 -48 -19 -48 -24 0 -6 -6 -10 -12 -10 -18 0 -168
-97 -168 -109 0 -20 -40 -21 -79 -2 -51 27 -124 19 -159 -16 -12 -12 -30 -23
-39 -23 -9 0 -32 -17 -52 -38 -56 -59 -65 -116 -58 -395 5 -194 9 -243 26
-302 12 -38 27 -76 35 -84 17 -16 131 -16 204 0 24 5 68 11 99 14 38 3 62 10
77 24 l22 21 80 -31 c108 -43 194 -48 299 -20 75 21 165 66 165 84 0 4 5 7 10
7 6 0 10 -7 10 -15 0 -9 9 -33 20 -55 28 -55 100 -69 100 -20 0 21 15 34 30
25 6 -4 6 -15 0 -30 -11 -28 -5 -30 62 -19 30 5 37 11 40 32 3 28 28 44 28 18
0 -9 4 -16 9 -16 19 0 41 45 56 115 14 60 15 96 7 228 -6 91 -6 172 -1 194 14
63 11 205 -7 256 -20 59 -66 107 -103 107 -15 0 -31 -4 -37 -9 -13 -13 -66
-17 -82 -7 -22 13 -60 -14 -79 -55 -10 -21 -21 -39 -25 -39 -12 0 -9 13 11 52
20 36 19 48 -5 48 -7 0 -24 11 -38 23 -27 25 -139 62 -221 72 -112 13 -132 13
-177 -1z m680 -157 c8 -6 23 -25 33 -41 21 -35 10 -76 -34 -119 -28 -28 -29
-30 -14 -60 8 -18 21 -45 28 -61 9 -19 14 -68 14 -142 0 -141 -7 -151 -108
-161 -76 -7 -92 3 -120 69 -17 41 -13 228 5 239 6 4 8 15 4 25 -4 11 1 25 14
39 l20 22 -25 11 c-68 31 -28 168 57 194 31 10 108 1 126 -15z m-268 -186 c0
-6 -4 -13 -10 -16 -5 -3 -10 1 -10 9 0 9 5 16 10 16 6 0 10 -4 10 -9z m-50
-151 c0 -5 -5 -10 -11 -10 -5 0 -7 5 -4 10 3 6 8 10 11 10 2 0 4 -4 4 -10z
m-63 -32 c-3 -8 -6 -5 -6 6 -1 11 2 17 5 13 3 -3 4 -12 1 -19z m143 -68 c0
-95 -28 -92 -32 3 -1 30 14 67 28 67 2 0 4 -31 4 -70z m262 -203 c21 -26 23
-48 6 -69 -9 -11 -38 -17 -99 -22 -103 -7 -116 1 -102 61 8 36 11 39 63 50 68
14 110 8 132 -20z m-2 -122 c0 -8 -4 -15 -10 -15 -5 0 -10 7 -10 15 0 8 5 15
10 15 6 0 10 -7 10 -15z m-138 -27 c-9 -9 -12 -7 -12 12 0 19 3 21 12 12 9 -9
9 -15 0 -24z"/>
<path d="M1186 1060 c-21 -24 -36 -50 -36 -65 l0 -26 23 22 c43 40 116 52 153
24 49 -37 62 9 15 56 -24 23 -38 29 -74 29 -39 0 -49 -5 -81 -40z"/>
<path d="M1214 895 c-9 -23 3 -32 43 -31 31 1 39 5 41 24 3 20 -1 22 -38 22
-26 0 -43 -5 -46 -15z"/>
<path d="M1258 1183 c7 -3 16 -2 19 1 4 3 -2 6 -13 5 -11 0 -14 -3 -6 -6z"/>
</g>
</svg>
